<mxfile host="app.diagrams.net" agent="Mozilla/5.0 (Windows NT 10.0; Win64; x64) AppleWebKit/537.36 (KHTML, like Gecko) Chrome/134.0.0.0 Safari/537.36" version="26.1.3">
  <diagram name="use case diagram" id="r7t_pRQ6ANRW3cNRwDmR">
    <mxGraphModel dx="1668" dy="868" grid="1" gridSize="10" guides="1" tooltips="1" connect="1" arrows="1" fold="1" page="1" pageScale="1" pageWidth="850" pageHeight="1100" math="0" shadow="0">
      <root>
        <mxCell id="0" />
        <mxCell id="1" parent="0" />
        <mxCell id="wqspUDHO9LXzTkl7utpf-1" value="" style="shape=folder;fontStyle=1;spacingTop=10;tabWidth=194;tabHeight=22;tabPosition=left;html=1;rounded=0;shadow=0;comic=0;labelBackgroundColor=none;strokeWidth=1;fillColor=none;fontFamily=Verdana;fontSize=10;align=center;" parent="1" vertex="1">
          <mxGeometry x="380" y="100" width="770" height="930" as="geometry" />
        </mxCell>
        <mxCell id="wqspUDHO9LXzTkl7utpf-2" value="&lt;b&gt;&lt;font style=&quot;font-size: 18px;&quot;&gt;PawTrack&lt;/font&gt;&lt;/b&gt;" style="text;html=1;align=center;verticalAlign=middle;whiteSpace=wrap;rounded=0;" parent="1" vertex="1">
          <mxGeometry x="370" y="90" width="150" height="40" as="geometry" />
        </mxCell>
        <mxCell id="wqspUDHO9LXzTkl7utpf-3" value="Login" style="ellipse;whiteSpace=wrap;html=1;" parent="1" vertex="1">
          <mxGeometry x="670" y="270" width="140" height="40" as="geometry" />
        </mxCell>
        <mxCell id="wqspUDHO9LXzTkl7utpf-4" style="edgeStyle=orthogonalEdgeStyle;rounded=0;orthogonalLoop=1;jettySize=auto;html=1;exitX=1;exitY=1;exitDx=0;exitDy=0;entryX=0.5;entryY=0;entryDx=0;entryDy=0;dashed=1;" parent="1" source="wqspUDHO9LXzTkl7utpf-6" target="wqspUDHO9LXzTkl7utpf-3" edge="1">
          <mxGeometry relative="1" as="geometry">
            <Array as="points">
              <mxPoint x="670" y="250" />
              <mxPoint x="740" y="250" />
            </Array>
          </mxGeometry>
        </mxCell>
        <mxCell id="wqspUDHO9LXzTkl7utpf-5" value="&amp;lt;&amp;lt;extends&amp;gt;&amp;gt;" style="edgeLabel;html=1;align=center;verticalAlign=middle;resizable=0;points=[];" parent="wqspUDHO9LXzTkl7utpf-4" vertex="1" connectable="0">
          <mxGeometry x="-0.5583" relative="1" as="geometry">
            <mxPoint as="offset" />
          </mxGeometry>
        </mxCell>
        <mxCell id="wqspUDHO9LXzTkl7utpf-6" value="Invalid credentials" style="ellipse;whiteSpace=wrap;html=1;" parent="1" vertex="1">
          <mxGeometry x="550" y="210" width="140" height="40" as="geometry" />
        </mxCell>
        <mxCell id="wqspUDHO9LXzTkl7utpf-7" value="Register" style="ellipse;whiteSpace=wrap;html=1;" parent="1" vertex="1">
          <mxGeometry x="680" y="150" width="140" height="40" as="geometry" />
        </mxCell>
        <mxCell id="wqspUDHO9LXzTkl7utpf-8" value="" style="endArrow=classic;dashed=1;html=1;dashPattern=1 3;strokeWidth=2;rounded=0;exitX=1;exitY=0;exitDx=0;exitDy=0;entryX=0.5;entryY=1;entryDx=0;entryDy=0;startArrow=none;startFill=0;endFill=1;" parent="1" source="wqspUDHO9LXzTkl7utpf-6" target="wqspUDHO9LXzTkl7utpf-7" edge="1">
          <mxGeometry width="50" height="50" relative="1" as="geometry">
            <mxPoint x="720" y="320" as="sourcePoint" />
            <mxPoint x="770" y="270" as="targetPoint" />
            <Array as="points">
              <mxPoint x="750" y="216" />
            </Array>
          </mxGeometry>
        </mxCell>
        <mxCell id="wqspUDHO9LXzTkl7utpf-9" value="&amp;lt;&amp;lt;extends&amp;gt;&amp;gt;" style="edgeLabel;html=1;align=center;verticalAlign=middle;resizable=0;points=[];" parent="wqspUDHO9LXzTkl7utpf-8" vertex="1" connectable="0">
          <mxGeometry x="-0.5033" y="1" relative="1" as="geometry">
            <mxPoint as="offset" />
          </mxGeometry>
        </mxCell>
        <mxCell id="wqspUDHO9LXzTkl7utpf-34" style="edgeStyle=orthogonalEdgeStyle;rounded=0;orthogonalLoop=1;jettySize=auto;html=1;entryX=0;entryY=0.5;entryDx=0;entryDy=0;curved=1;" parent="1" source="wqspUDHO9LXzTkl7utpf-10" target="wqspUDHO9LXzTkl7utpf-7" edge="1">
          <mxGeometry relative="1" as="geometry">
            <Array as="points">
              <mxPoint x="330" y="420" />
              <mxPoint x="330" y="170" />
            </Array>
          </mxGeometry>
        </mxCell>
        <mxCell id="wqspUDHO9LXzTkl7utpf-35" style="edgeStyle=orthogonalEdgeStyle;rounded=0;orthogonalLoop=1;jettySize=auto;html=1;entryX=0;entryY=0.5;entryDx=0;entryDy=0;curved=1;" parent="1" source="wqspUDHO9LXzTkl7utpf-10" target="wqspUDHO9LXzTkl7utpf-3" edge="1">
          <mxGeometry relative="1" as="geometry">
            <Array as="points">
              <mxPoint x="360" y="420" />
              <mxPoint x="360" y="290" />
            </Array>
          </mxGeometry>
        </mxCell>
        <mxCell id="wqspUDHO9LXzTkl7utpf-36" style="edgeStyle=orthogonalEdgeStyle;rounded=0;orthogonalLoop=1;jettySize=auto;html=1;entryX=0;entryY=0.5;entryDx=0;entryDy=0;curved=1;" parent="1" source="wqspUDHO9LXzTkl7utpf-10" target="wqspUDHO9LXzTkl7utpf-15" edge="1">
          <mxGeometry relative="1" as="geometry" />
        </mxCell>
        <mxCell id="wqspUDHO9LXzTkl7utpf-37" style="edgeStyle=orthogonalEdgeStyle;rounded=0;orthogonalLoop=1;jettySize=auto;html=1;entryX=0;entryY=0.5;entryDx=0;entryDy=0;curved=1;" parent="1" source="wqspUDHO9LXzTkl7utpf-10" target="wqspUDHO9LXzTkl7utpf-16" edge="1">
          <mxGeometry relative="1" as="geometry" />
        </mxCell>
        <mxCell id="wqspUDHO9LXzTkl7utpf-38" style="edgeStyle=orthogonalEdgeStyle;rounded=0;orthogonalLoop=1;jettySize=auto;html=1;entryX=0;entryY=0.5;entryDx=0;entryDy=0;curved=1;" parent="1" source="wqspUDHO9LXzTkl7utpf-10" target="wqspUDHO9LXzTkl7utpf-17" edge="1">
          <mxGeometry relative="1" as="geometry" />
        </mxCell>
        <mxCell id="wqspUDHO9LXzTkl7utpf-39" style="edgeStyle=orthogonalEdgeStyle;rounded=0;orthogonalLoop=1;jettySize=auto;html=1;entryX=0;entryY=0.5;entryDx=0;entryDy=0;curved=1;" parent="1" source="wqspUDHO9LXzTkl7utpf-10" target="wqspUDHO9LXzTkl7utpf-18" edge="1">
          <mxGeometry relative="1" as="geometry" />
        </mxCell>
        <mxCell id="wqspUDHO9LXzTkl7utpf-40" style="edgeStyle=orthogonalEdgeStyle;rounded=0;orthogonalLoop=1;jettySize=auto;html=1;entryX=0;entryY=0.5;entryDx=0;entryDy=0;curved=1;" parent="1" source="wqspUDHO9LXzTkl7utpf-10" target="wqspUDHO9LXzTkl7utpf-19" edge="1">
          <mxGeometry relative="1" as="geometry">
            <Array as="points">
              <mxPoint x="380" y="420" />
              <mxPoint x="380" y="590" />
            </Array>
          </mxGeometry>
        </mxCell>
        <mxCell id="wqspUDHO9LXzTkl7utpf-41" style="edgeStyle=orthogonalEdgeStyle;rounded=0;orthogonalLoop=1;jettySize=auto;html=1;entryX=0;entryY=0.5;entryDx=0;entryDy=0;curved=1;" parent="1" source="wqspUDHO9LXzTkl7utpf-10" target="wqspUDHO9LXzTkl7utpf-20" edge="1">
          <mxGeometry relative="1" as="geometry">
            <Array as="points">
              <mxPoint x="370" y="420" />
              <mxPoint x="370" y="650" />
            </Array>
          </mxGeometry>
        </mxCell>
        <mxCell id="wqspUDHO9LXzTkl7utpf-42" style="edgeStyle=orthogonalEdgeStyle;rounded=0;orthogonalLoop=1;jettySize=auto;html=1;entryX=0;entryY=0.5;entryDx=0;entryDy=0;curved=1;" parent="1" source="wqspUDHO9LXzTkl7utpf-10" target="wqspUDHO9LXzTkl7utpf-21" edge="1">
          <mxGeometry relative="1" as="geometry">
            <Array as="points">
              <mxPoint x="360" y="420" />
              <mxPoint x="360" y="700" />
            </Array>
          </mxGeometry>
        </mxCell>
        <mxCell id="wqspUDHO9LXzTkl7utpf-43" style="edgeStyle=orthogonalEdgeStyle;rounded=0;orthogonalLoop=1;jettySize=auto;html=1;entryX=0;entryY=0.5;entryDx=0;entryDy=0;curved=1;" parent="1" source="wqspUDHO9LXzTkl7utpf-10" target="wqspUDHO9LXzTkl7utpf-22" edge="1">
          <mxGeometry relative="1" as="geometry">
            <Array as="points">
              <mxPoint x="350" y="420" />
              <mxPoint x="350" y="750" />
            </Array>
          </mxGeometry>
        </mxCell>
        <mxCell id="wqspUDHO9LXzTkl7utpf-44" style="edgeStyle=orthogonalEdgeStyle;rounded=0;orthogonalLoop=1;jettySize=auto;html=1;entryX=0;entryY=0.5;entryDx=0;entryDy=0;curved=1;" parent="1" source="wqspUDHO9LXzTkl7utpf-10" target="wqspUDHO9LXzTkl7utpf-23" edge="1">
          <mxGeometry relative="1" as="geometry">
            <Array as="points">
              <mxPoint x="340" y="420" />
              <mxPoint x="340" y="810" />
            </Array>
          </mxGeometry>
        </mxCell>
        <mxCell id="aZJ5O3DvBRGb5bYOVvzJ-2" style="edgeStyle=orthogonalEdgeStyle;rounded=0;orthogonalLoop=1;jettySize=auto;html=1;entryX=0;entryY=0.5;entryDx=0;entryDy=0;curved=1;" edge="1" parent="1" source="wqspUDHO9LXzTkl7utpf-10" target="aZJ5O3DvBRGb5bYOVvzJ-1">
          <mxGeometry relative="1" as="geometry">
            <Array as="points">
              <mxPoint x="320" y="870" />
            </Array>
          </mxGeometry>
        </mxCell>
        <mxCell id="aZJ5O3DvBRGb5bYOVvzJ-5" style="edgeStyle=orthogonalEdgeStyle;rounded=0;orthogonalLoop=1;jettySize=auto;html=1;entryX=0;entryY=0.5;entryDx=0;entryDy=0;curved=1;" edge="1" parent="1" source="wqspUDHO9LXzTkl7utpf-10" target="aZJ5O3DvBRGb5bYOVvzJ-4">
          <mxGeometry relative="1" as="geometry">
            <Array as="points">
              <mxPoint x="290" y="935" />
            </Array>
          </mxGeometry>
        </mxCell>
        <mxCell id="aZJ5O3DvBRGb5bYOVvzJ-8" style="edgeStyle=orthogonalEdgeStyle;rounded=0;orthogonalLoop=1;jettySize=auto;html=1;entryX=0;entryY=0.5;entryDx=0;entryDy=0;curved=1;" edge="1" parent="1" source="wqspUDHO9LXzTkl7utpf-10" target="aZJ5O3DvBRGb5bYOVvzJ-7">
          <mxGeometry relative="1" as="geometry">
            <Array as="points">
              <mxPoint x="270" y="420" />
              <mxPoint x="270" y="990" />
            </Array>
          </mxGeometry>
        </mxCell>
        <mxCell id="wqspUDHO9LXzTkl7utpf-10" value="User" style="shape=umlActor;verticalLabelPosition=bottom;verticalAlign=top;html=1;outlineConnect=0;" parent="1" vertex="1">
          <mxGeometry x="290" y="390" width="30" height="60" as="geometry" />
        </mxCell>
        <mxCell id="wqspUDHO9LXzTkl7utpf-32" style="edgeStyle=orthogonalEdgeStyle;rounded=0;orthogonalLoop=1;jettySize=auto;html=1;dashed=1;endArrow=none;startFill=0;" parent="1" source="wqspUDHO9LXzTkl7utpf-15" edge="1">
          <mxGeometry relative="1" as="geometry">
            <mxPoint x="750" y="360" as="targetPoint" />
          </mxGeometry>
        </mxCell>
        <mxCell id="wqspUDHO9LXzTkl7utpf-15" value="Create &amp;amp; Manage profile" style="ellipse;whiteSpace=wrap;html=1;" parent="1" vertex="1">
          <mxGeometry x="460" y="340" width="140" height="40" as="geometry" />
        </mxCell>
        <mxCell id="wqspUDHO9LXzTkl7utpf-31" style="edgeStyle=orthogonalEdgeStyle;rounded=0;orthogonalLoop=1;jettySize=auto;html=1;dashed=1;endArrow=none;startFill=0;" parent="1" source="wqspUDHO9LXzTkl7utpf-16" edge="1">
          <mxGeometry relative="1" as="geometry">
            <mxPoint x="750" y="410" as="targetPoint" />
          </mxGeometry>
        </mxCell>
        <mxCell id="wqspUDHO9LXzTkl7utpf-16" value="Create &amp;amp; Manange Profile for pets" style="ellipse;whiteSpace=wrap;html=1;" parent="1" vertex="1">
          <mxGeometry x="460" y="390" width="140" height="40" as="geometry" />
        </mxCell>
        <mxCell id="wqspUDHO9LXzTkl7utpf-30" style="edgeStyle=orthogonalEdgeStyle;rounded=0;orthogonalLoop=1;jettySize=auto;html=1;dashed=1;endArrow=none;startFill=0;" parent="1" source="wqspUDHO9LXzTkl7utpf-17" edge="1">
          <mxGeometry relative="1" as="geometry">
            <mxPoint x="750" y="469.9999999999998" as="targetPoint" />
          </mxGeometry>
        </mxCell>
        <mxCell id="wqspUDHO9LXzTkl7utpf-17" value="View / Add daily tasks&amp;nbsp;" style="ellipse;whiteSpace=wrap;html=1;" parent="1" vertex="1">
          <mxGeometry x="460" y="450" width="140" height="40" as="geometry" />
        </mxCell>
        <mxCell id="wqspUDHO9LXzTkl7utpf-29" style="edgeStyle=orthogonalEdgeStyle;rounded=0;orthogonalLoop=1;jettySize=auto;html=1;endArrow=none;startFill=0;dashed=1;" parent="1" source="wqspUDHO9LXzTkl7utpf-18" edge="1">
          <mxGeometry relative="1" as="geometry">
            <mxPoint x="750" y="530" as="targetPoint" />
          </mxGeometry>
        </mxCell>
        <mxCell id="wqspUDHO9LXzTkl7utpf-18" value="View profile" style="ellipse;whiteSpace=wrap;html=1;" parent="1" vertex="1">
          <mxGeometry x="460" y="510" width="140" height="40" as="geometry" />
        </mxCell>
        <mxCell id="wqspUDHO9LXzTkl7utpf-28" style="edgeStyle=orthogonalEdgeStyle;rounded=0;orthogonalLoop=1;jettySize=auto;html=1;dashed=1;endArrow=none;startFill=0;" parent="1" source="wqspUDHO9LXzTkl7utpf-19" edge="1">
          <mxGeometry relative="1" as="geometry">
            <mxPoint x="750" y="590" as="targetPoint" />
          </mxGeometry>
        </mxCell>
        <mxCell id="wqspUDHO9LXzTkl7utpf-19" value="View sent messages" style="ellipse;whiteSpace=wrap;html=1;" parent="1" vertex="1">
          <mxGeometry x="460" y="570" width="140" height="40" as="geometry" />
        </mxCell>
        <mxCell id="wqspUDHO9LXzTkl7utpf-27" style="edgeStyle=orthogonalEdgeStyle;rounded=0;orthogonalLoop=1;jettySize=auto;html=1;dashed=1;endArrow=none;startFill=0;" parent="1" source="wqspUDHO9LXzTkl7utpf-20" edge="1">
          <mxGeometry relative="1" as="geometry">
            <mxPoint x="750" y="650" as="targetPoint" />
          </mxGeometry>
        </mxCell>
        <mxCell id="wqspUDHO9LXzTkl7utpf-20" value="View received messages" style="ellipse;whiteSpace=wrap;html=1;" parent="1" vertex="1">
          <mxGeometry x="460" y="630" width="140" height="40" as="geometry" />
        </mxCell>
        <mxCell id="wqspUDHO9LXzTkl7utpf-26" style="edgeStyle=orthogonalEdgeStyle;rounded=0;orthogonalLoop=1;jettySize=auto;html=1;dashed=1;endArrow=none;startFill=0;" parent="1" source="wqspUDHO9LXzTkl7utpf-21" edge="1">
          <mxGeometry relative="1" as="geometry">
            <mxPoint x="750" y="700" as="targetPoint" />
          </mxGeometry>
        </mxCell>
        <mxCell id="wqspUDHO9LXzTkl7utpf-21" value="Report lost&amp;amp;founds pets" style="ellipse;whiteSpace=wrap;html=1;" parent="1" vertex="1">
          <mxGeometry x="460" y="680" width="140" height="40" as="geometry" />
        </mxCell>
        <mxCell id="wqspUDHO9LXzTkl7utpf-25" style="edgeStyle=orthogonalEdgeStyle;rounded=0;orthogonalLoop=1;jettySize=auto;html=1;endArrow=none;startFill=0;dashed=1;" parent="1" source="wqspUDHO9LXzTkl7utpf-22" edge="1">
          <mxGeometry relative="1" as="geometry">
            <mxPoint x="750" y="749.9999999999998" as="targetPoint" />
          </mxGeometry>
        </mxCell>
        <mxCell id="wqspUDHO9LXzTkl7utpf-22" value="View / Add all pets" style="ellipse;whiteSpace=wrap;html=1;" parent="1" vertex="1">
          <mxGeometry x="460" y="730" width="140" height="40" as="geometry" />
        </mxCell>
        <mxCell id="wqspUDHO9LXzTkl7utpf-23" value="View details about a pet" style="ellipse;whiteSpace=wrap;html=1;" parent="1" vertex="1">
          <mxGeometry x="460" y="790" width="140" height="40" as="geometry" />
        </mxCell>
        <mxCell id="wqspUDHO9LXzTkl7utpf-24" style="edgeStyle=orthogonalEdgeStyle;rounded=0;orthogonalLoop=1;jettySize=auto;html=1;entryX=0.6;entryY=0.988;entryDx=0;entryDy=0;entryPerimeter=0;dashed=1;" parent="1" source="wqspUDHO9LXzTkl7utpf-23" target="wqspUDHO9LXzTkl7utpf-3" edge="1">
          <mxGeometry relative="1" as="geometry" />
        </mxCell>
        <mxCell id="wqspUDHO9LXzTkl7utpf-33" value="&amp;lt;&amp;lt;include&amp;gt;&amp;gt;" style="edgeLabel;html=1;align=center;verticalAlign=middle;resizable=0;points=[];" parent="wqspUDHO9LXzTkl7utpf-24" vertex="1" connectable="0">
          <mxGeometry x="0.9204" y="-2" relative="1" as="geometry">
            <mxPoint as="offset" />
          </mxGeometry>
        </mxCell>
        <mxCell id="aZJ5O3DvBRGb5bYOVvzJ-3" style="edgeStyle=orthogonalEdgeStyle;rounded=0;orthogonalLoop=1;jettySize=auto;html=1;dashed=1;endArrow=none;startFill=0;" edge="1" parent="1" source="aZJ5O3DvBRGb5bYOVvzJ-1">
          <mxGeometry relative="1" as="geometry">
            <mxPoint x="749.9999999999995" y="810" as="targetPoint" />
          </mxGeometry>
        </mxCell>
        <mxCell id="aZJ5O3DvBRGb5bYOVvzJ-1" value="Check lost and found page" style="ellipse;whiteSpace=wrap;html=1;" vertex="1" parent="1">
          <mxGeometry x="460" y="850" width="140" height="40" as="geometry" />
        </mxCell>
        <mxCell id="aZJ5O3DvBRGb5bYOVvzJ-6" style="edgeStyle=orthogonalEdgeStyle;rounded=0;orthogonalLoop=1;jettySize=auto;html=1;endArrow=none;startFill=0;dashed=1;" edge="1" parent="1" source="aZJ5O3DvBRGb5bYOVvzJ-4">
          <mxGeometry relative="1" as="geometry">
            <mxPoint x="749.9999999999995" y="860" as="targetPoint" />
          </mxGeometry>
        </mxCell>
        <mxCell id="aZJ5O3DvBRGb5bYOVvzJ-4" value="Notify owner that pet was found" style="ellipse;whiteSpace=wrap;html=1;" vertex="1" parent="1">
          <mxGeometry x="460" y="910" width="160" height="50" as="geometry" />
        </mxCell>
        <mxCell id="aZJ5O3DvBRGb5bYOVvzJ-9" style="edgeStyle=orthogonalEdgeStyle;rounded=0;orthogonalLoop=1;jettySize=auto;html=1;endArrow=none;startFill=0;dashed=1;" edge="1" parent="1" source="aZJ5O3DvBRGb5bYOVvzJ-7">
          <mxGeometry relative="1" as="geometry">
            <mxPoint x="749.9999999999995" y="900" as="targetPoint" />
          </mxGeometry>
        </mxCell>
        <mxCell id="aZJ5O3DvBRGb5bYOVvzJ-7" value="Check veterinary office" style="ellipse;whiteSpace=wrap;html=1;" vertex="1" parent="1">
          <mxGeometry x="460" y="970" width="150" height="40" as="geometry" />
        </mxCell>
      </root>
    </mxGraphModel>
  </diagram>
</mxfile>
